<svg width="209" height="41" viewBox="0 0 209 41" fill="none" xmlns="http://www.w3.org/2000/svg">
<path d="M67.5479 28H62.6348V26.9717H64.4893V17.5586H62.6348V16.5303H65.7021V26.9717H67.5479V28ZM77.374 28H72.4609V26.9717H74.3154V17.5586H72.4609V16.5303H75.5283V26.9717H77.374V28ZM89.0547 23.9307C89.0547 24.5693 88.9521 25.1494 88.7471 25.6709C88.5479 26.1924 88.2578 26.6406 87.877 27.0156C87.502 27.3848 87.0508 27.6748 86.5234 27.8857C85.9961 28.0967 85.4072 28.2021 84.7568 28.2021C84.1182 28.2021 83.5352 28.0967 83.0078 27.8857C82.4805 27.6748 82.0264 27.3848 81.6455 27.0156C81.2705 26.6406 80.9805 26.1924 80.7754 25.6709C80.5762 25.1494 80.4766 24.5693 80.4766 23.9307C80.4766 23.3096 80.5762 22.7324 80.7754 22.1992C80.9805 21.6602 81.2705 21.2031 81.6455 20.8281C82.0264 20.4473 82.4805 20.1514 83.0078 19.9404C83.5352 19.7236 84.1182 19.6152 84.7568 19.6152C85.4072 19.6152 85.9961 19.7236 86.5234 19.9404C87.0508 20.1514 87.502 20.4473 87.877 20.8281C88.2578 21.2031 88.5479 21.6602 88.7471 22.1992C88.9521 22.7324 89.0547 23.3096 89.0547 23.9307ZM87.8506 23.9307C87.8506 23.4619 87.7803 23.0312 87.6396 22.6387C87.5049 22.2402 87.3027 21.8916 87.0332 21.5928C86.7637 21.2939 86.4355 21.0596 86.0488 20.8896C85.668 20.7197 85.2373 20.6348 84.7568 20.6348C84.2764 20.6348 83.8428 20.7197 83.4561 20.8896C83.0752 21.0596 82.7529 21.2939 82.4893 21.5928C82.2256 21.8916 82.0234 22.2402 81.8828 22.6387C81.748 23.0312 81.6807 23.4619 81.6807 23.9307C81.6807 24.3994 81.748 24.833 81.8828 25.2314C82.0234 25.624 82.2256 25.9639 82.4893 26.251C82.7529 26.5381 83.0752 26.7637 83.4561 26.9277C83.8428 27.0918 84.2764 27.1738 84.7568 27.1738C85.2373 27.1738 85.668 27.0918 86.0488 26.9277C86.4355 26.7637 86.7637 26.5381 87.0332 26.251C87.3027 25.9639 87.5049 25.624 87.6396 25.2314C87.7803 24.833 87.8506 24.3994 87.8506 23.9307ZM98.9248 19.8086L94.4951 30.0742C94.2666 30.6484 93.9443 31.0234 93.5283 31.1992C93.1123 31.3809 92.6523 31.4717 92.1484 31.4717C91.5859 31.4717 91.0234 31.3691 90.4609 31.1641L90.6982 30.127C90.9736 30.2441 91.2432 30.3262 91.5068 30.373C91.7705 30.4258 91.9844 30.4521 92.1484 30.4521C92.5469 30.4521 92.8193 30.3555 92.9658 30.1621C93.1182 29.9688 93.25 29.7402 93.3613 29.4766L93.8623 28.2373L90.2061 19.8086H91.6299L94.583 26.9717L97.4834 19.8086H98.9248ZM108.065 28H106.853V27.2441C106.507 27.5547 106.126 27.792 105.71 27.9561C105.3 28.1201 104.878 28.2021 104.444 28.2021C103.794 28.2021 103.211 28.0967 102.695 27.8857C102.18 27.6748 101.743 27.3818 101.386 27.0068C101.034 26.626 100.762 26.1719 100.568 25.6445C100.381 25.1172 100.287 24.54 100.287 23.9131C100.287 23.292 100.381 22.7178 100.568 22.1904C100.762 21.6572 101.034 21.2031 101.386 20.8281C101.743 20.4473 102.18 20.1514 102.695 19.9404C103.211 19.7236 103.794 19.6152 104.444 19.6152C104.878 19.6152 105.3 19.6943 105.71 19.8525C106.126 20.0049 106.507 20.2363 106.853 20.5469V17.5586H105.218V16.5303H108.065V28ZM106.853 21.7158C106.507 21.335 106.129 21.0596 105.719 20.8896C105.314 20.7197 104.884 20.6348 104.427 20.6348C103.946 20.6348 103.521 20.7197 103.152 20.8896C102.789 21.0596 102.484 21.291 102.238 21.584C101.992 21.877 101.805 22.2227 101.676 22.6211C101.553 23.0137 101.491 23.4443 101.491 23.9131C101.491 24.3818 101.553 24.8154 101.676 25.2139C101.805 25.6064 101.992 25.9492 102.238 26.2422C102.484 26.5352 102.789 26.7666 103.152 26.9365C103.521 27.1064 103.946 27.1914 104.427 27.1914C105.353 27.1914 106.161 26.8252 106.853 26.0928V21.7158ZM127.929 25.7324C127.929 26.2129 127.809 26.6113 127.568 26.9277C127.328 27.2441 127.018 27.4961 126.637 27.6836C126.262 27.8711 125.84 28.0029 125.371 28.0791C124.908 28.1611 124.454 28.2021 124.009 28.2021C123.265 28.2021 122.523 28.0938 121.785 27.877C121.047 27.6602 120.408 27.376 119.869 27.0244L120.405 25.9873C121.009 26.3682 121.604 26.6611 122.189 26.8662C122.775 27.0713 123.382 27.1738 124.009 27.1738C125.819 27.1738 126.725 26.7051 126.725 25.7676C126.725 25.5391 126.648 25.3545 126.496 25.2139C126.35 25.0674 126.15 24.9502 125.898 24.8623C125.646 24.7686 125.356 24.6953 125.028 24.6426C124.706 24.5898 124.366 24.54 124.009 24.4932C123.552 24.4287 123.098 24.3525 122.646 24.2646C122.195 24.1768 121.782 24.0449 121.407 23.8691C121.038 23.6934 120.739 23.459 120.511 23.166C120.288 22.873 120.177 22.4863 120.177 22.0059C120.177 21.5957 120.279 21.2412 120.484 20.9424C120.695 20.6436 120.974 20.3945 121.319 20.1953C121.671 19.9961 122.081 19.8496 122.55 19.7559C123.019 19.6621 123.505 19.6152 124.009 19.6152C124.729 19.6152 125.374 19.7002 125.942 19.8701C126.511 20.0342 127.023 20.2715 127.48 20.582L126.997 21.5225C126.528 21.1943 126.054 20.9658 125.573 20.8369C125.093 20.7021 124.571 20.6348 124.009 20.6348C123.757 20.6348 123.476 20.6582 123.165 20.7051C122.86 20.7461 122.576 20.8223 122.312 20.9336C122.049 21.0391 121.826 21.1797 121.645 21.3555C121.469 21.5254 121.381 21.7422 121.381 22.0059C121.381 22.2344 121.454 22.4189 121.601 22.5596C121.753 22.6943 121.955 22.8086 122.207 22.9023C122.459 22.9902 122.746 23.0605 123.068 23.1133C123.396 23.166 123.739 23.2158 124.097 23.2627C124.542 23.3271 124.99 23.4033 125.441 23.4912C125.898 23.5791 126.312 23.708 126.681 23.8779C127.056 24.0479 127.357 24.2793 127.586 24.5723C127.814 24.8652 127.929 25.252 127.929 25.7324ZM130.987 24.3262C131.075 25.1934 131.392 25.8848 131.937 26.4004C132.481 26.916 133.19 27.1738 134.063 27.1738C134.679 27.1738 135.227 27.0479 135.707 26.7959C136.188 26.5439 136.548 26.2305 136.788 25.8555L137.632 26.4355C137.222 27.0098 136.732 27.4492 136.164 27.7539C135.596 28.0527 134.896 28.2021 134.063 28.2021C133.431 28.2021 132.851 28.0967 132.323 27.8857C131.796 27.6748 131.339 27.3818 130.952 27.0068C130.571 26.626 130.275 26.1748 130.064 25.6533C129.854 25.1318 129.748 24.5518 129.748 23.9131C129.748 23.292 129.842 22.7207 130.029 22.1992C130.223 21.6719 130.498 21.2178 130.855 20.8369C131.219 20.4502 131.658 20.1514 132.174 19.9404C132.689 19.7236 133.267 19.6152 133.905 19.6152C134.603 19.6152 135.212 19.7324 135.733 19.9668C136.255 20.2012 136.688 20.5264 137.034 20.9424C137.386 21.3525 137.644 21.8447 137.808 22.4189C137.978 22.9932 138.062 23.6289 138.062 24.3262H130.987ZM136.788 23.2979C136.653 22.4014 136.328 21.7334 135.812 21.2939C135.297 20.8545 134.661 20.6348 133.905 20.6348C133.519 20.6348 133.161 20.6992 132.833 20.8281C132.505 20.9512 132.215 21.1299 131.963 21.3643C131.711 21.5986 131.5 21.8828 131.33 22.2168C131.16 22.5449 131.052 22.9053 131.005 23.2979H136.788ZM147.801 28H146.597V22.1113C146.597 21.6426 146.515 21.2793 146.351 21.0215C146.187 20.7637 145.949 20.6348 145.639 20.6348C145.182 20.6348 144.845 20.875 144.628 21.3555C144.417 21.8359 144.312 22.5098 144.312 23.377V28H143.099V22.1113C143.099 21.6426 143.014 21.2793 142.844 21.0215C142.68 20.7637 142.442 20.6348 142.132 20.6348C141.845 20.6348 141.616 20.7197 141.446 20.8896C141.276 21.0596 141.142 21.2764 141.042 21.54C140.948 21.8037 140.887 22.0967 140.857 22.4189C140.828 22.7412 140.813 23.0605 140.813 23.377V28H139.609V19.8086H140.813V20.9951C141.065 20.0752 141.613 19.6152 142.457 19.6152C143.26 19.6152 143.805 20.0166 144.092 20.8193C144.49 20.0166 145.053 19.6152 145.779 19.6152C146.477 19.6152 146.986 19.8232 147.309 20.2393C147.637 20.6494 147.801 21.2734 147.801 22.1113V28ZM157.627 23.9131C157.627 24.54 157.53 25.1172 157.337 25.6445C157.144 26.1719 156.865 26.626 156.502 27.0068C156.145 27.3818 155.711 27.6748 155.201 27.8857C154.691 28.0967 154.12 28.2021 153.487 28.2021C153.042 28.2021 152.614 28.123 152.204 27.9648C151.8 27.8066 151.422 27.5723 151.07 27.2617V28H149.866V16.5303H151.07V20.5645C151.422 20.2656 151.8 20.0342 152.204 19.8701C152.614 19.7002 153.042 19.6152 153.487 19.6152C154.12 19.6152 154.691 19.7236 155.201 19.9404C155.711 20.1514 156.145 20.4473 156.502 20.8281C156.865 21.2031 157.144 21.6572 157.337 22.1904C157.53 22.7178 157.627 23.292 157.627 23.9131ZM156.405 23.9131C156.405 23.4443 156.344 23.0137 156.221 22.6211C156.104 22.2227 155.922 21.877 155.676 21.584C155.43 21.291 155.122 21.0596 154.753 20.8896C154.39 20.7197 153.968 20.6348 153.487 20.6348C152.562 20.6348 151.756 21.001 151.07 21.7334V26.1104C151.422 26.4912 151.797 26.7637 152.195 26.9277C152.6 27.0918 153.03 27.1738 153.487 27.1738C153.968 27.1738 154.387 27.0889 154.744 26.9189C155.107 26.749 155.412 26.5176 155.658 26.2246C155.904 25.9316 156.089 25.5889 156.212 25.1963C156.341 24.7979 156.405 24.3701 156.405 23.9131ZM165.81 28H160.896V26.9717H162.751V17.5586H160.896V16.5303H163.964V26.9717H165.81V28ZM169.07 25.7852C169.07 25.2695 169.199 24.8389 169.457 24.4932C169.715 24.1416 170.052 23.8662 170.468 23.667C170.89 23.4619 171.37 23.3154 171.909 23.2275C172.454 23.1338 173.008 23.0869 173.57 23.0869C173.787 23.0869 173.98 23.0898 174.15 23.0957C174.326 23.1016 174.49 23.1104 174.643 23.1221C174.801 23.1338 174.959 23.1484 175.117 23.166C175.275 23.1836 175.448 23.2041 175.636 23.2275V22.6387C175.636 22.2402 175.548 21.9121 175.372 21.6543C175.202 21.3965 174.991 21.1943 174.739 21.0479C174.487 20.8955 174.224 20.79 173.948 20.7314C173.673 20.667 173.438 20.6348 173.245 20.6348C172.636 20.6348 172.073 20.7168 171.558 20.8809C171.042 21.0449 170.562 21.2646 170.116 21.54L169.571 20.6348C170.063 20.3359 170.614 20.0928 171.224 19.9053C171.839 19.7119 172.513 19.6152 173.245 19.6152C173.69 19.6152 174.127 19.6738 174.555 19.791C174.988 19.9023 175.375 20.0781 175.715 20.3184C176.061 20.5527 176.336 20.8633 176.541 21.25C176.746 21.6367 176.849 22.0996 176.849 22.6387V28H175.636V26.6289C175.425 26.8926 175.185 27.124 174.915 27.3232C174.651 27.5225 174.373 27.6865 174.08 27.8154C173.787 27.9385 173.494 28.0322 173.201 28.0967C172.908 28.167 172.63 28.2021 172.366 28.2021C171.282 28.2021 170.462 27.9941 169.905 27.5781C169.349 27.1621 169.07 26.5645 169.07 25.7852ZM172.366 27.1738C172.87 27.1738 173.321 27.1006 173.72 26.9541C174.124 26.8018 174.467 26.6143 174.748 26.3916C175.029 26.1689 175.246 25.9316 175.398 25.6797C175.557 25.4277 175.636 25.1992 175.636 24.9941V24.2207C175.243 24.1621 174.865 24.1299 174.502 24.124C174.145 24.1182 173.834 24.1152 173.57 24.1152C173.137 24.1152 172.718 24.1445 172.313 24.2031C171.915 24.2617 171.566 24.3584 171.268 24.4932C170.969 24.6221 170.729 24.792 170.547 25.0029C170.365 25.2139 170.274 25.4746 170.274 25.7852C170.274 26.1309 170.441 26.4502 170.775 26.7432C171.115 27.0303 171.646 27.1738 172.366 27.1738ZM186.675 28H185.462V22.9463C185.462 22.2139 185.304 21.6455 184.987 21.2412C184.671 20.8369 184.158 20.6348 183.449 20.6348C183.004 20.6348 182.6 20.7373 182.236 20.9424C181.879 21.1475 181.574 21.4229 181.322 21.7686C181.07 22.1084 180.877 22.501 180.742 22.9463C180.613 23.3857 180.549 23.8457 180.549 24.3262V28H179.345V19.8086H180.549V21.8652C181.129 20.3652 182.163 19.6152 183.651 19.6152C185.667 19.6152 186.675 20.7256 186.675 22.9463V28ZM197.02 25.3896C196.926 26.251 196.586 26.9365 196 27.4463C195.42 27.9502 194.693 28.2021 193.82 28.2021C193.34 28.2021 192.9 28.123 192.502 27.9648C192.104 27.8066 191.764 27.5869 191.482 27.3057C191.201 27.0244 190.981 26.6875 190.823 26.2949C190.671 25.8965 190.595 25.4629 190.595 24.9941V20.8369H188.74V19.8086H190.595V16.5303H191.799V19.8086H195.288V20.8369H191.799V24.9941C191.799 25.293 191.846 25.5742 191.939 25.8379C192.039 26.1016 192.174 26.333 192.344 26.5322C192.52 26.7314 192.73 26.8896 192.977 27.0068C193.223 27.1182 193.504 27.1738 193.82 27.1738C194.418 27.1738 194.916 26.9893 195.314 26.6201C195.719 26.2451 195.95 25.7617 196.009 25.1699L197.02 25.3896ZM199.771 24.3262C199.858 25.1934 200.175 25.8848 200.72 26.4004C201.265 26.916 201.974 27.1738 202.847 27.1738C203.462 27.1738 204.01 27.0479 204.49 26.7959C204.971 26.5439 205.331 26.2305 205.571 25.8555L206.415 26.4355C206.005 27.0098 205.516 27.4492 204.947 27.7539C204.379 28.0527 203.679 28.2021 202.847 28.2021C202.214 28.2021 201.634 28.0967 201.106 27.8857C200.579 27.6748 200.122 27.3818 199.735 27.0068C199.354 26.626 199.059 26.1748 198.848 25.6533C198.637 25.1318 198.531 24.5518 198.531 23.9131C198.531 23.292 198.625 22.7207 198.812 22.1992C199.006 21.6719 199.281 21.2178 199.639 20.8369C200.002 20.4502 200.441 20.1514 200.957 19.9404C201.473 19.7236 202.05 19.6152 202.688 19.6152C203.386 19.6152 203.995 19.7324 204.517 19.9668C205.038 20.2012 205.472 20.5264 205.817 20.9424C206.169 21.3525 206.427 21.8447 206.591 22.4189C206.761 22.9932 206.846 23.6289 206.846 24.3262H199.771ZM205.571 23.2979C205.437 22.4014 205.111 21.7334 204.596 21.2939C204.08 20.8545 203.444 20.6348 202.688 20.6348C202.302 20.6348 201.944 20.6992 201.616 20.8281C201.288 20.9512 200.998 21.1299 200.746 21.3643C200.494 21.5986 200.283 21.8828 200.113 22.2168C199.943 22.5449 199.835 22.9053 199.788 23.2979H205.571Z" fill="white"/>
<path d="M16.9131 30H8.72461V28.2861H11.8154V12.5977H8.72461V10.8838H13.8369V28.2861H16.9131V30ZM35.6631 26.2207C35.6631 27.0215 35.4629 27.6855 35.0625 28.2129C34.6621 28.7402 34.1445 29.1602 33.5098 29.4727C32.8848 29.7852 32.1816 30.0049 31.4004 30.1318C30.6289 30.2686 29.8721 30.3369 29.1299 30.3369C27.8896 30.3369 26.6543 30.1562 25.4238 29.7949C24.1934 29.4336 23.1289 28.96 22.2305 28.374L23.124 26.6455C24.1299 27.2803 25.1211 27.7686 26.0977 28.1104C27.0742 28.4521 28.085 28.623 29.1299 28.623C32.1475 28.623 33.6562 27.8418 33.6562 26.2793C33.6562 25.8984 33.5293 25.5908 33.2754 25.3564C33.0312 25.1123 32.6992 24.917 32.2793 24.7705C31.8594 24.6143 31.376 24.4922 30.8291 24.4043C30.292 24.3164 29.7256 24.2334 29.1299 24.1553C28.3682 24.0479 27.6113 23.9209 26.8594 23.7744C26.1074 23.6279 25.4189 23.4082 24.7939 23.1152C24.1787 22.8223 23.6807 22.4316 23.2998 21.9434C22.9287 21.4551 22.7432 20.8105 22.7432 20.0098C22.7432 19.3262 22.9141 18.7354 23.2559 18.2373C23.6074 17.7393 24.0713 17.3242 24.6475 16.9922C25.2334 16.6602 25.917 16.416 26.6982 16.2598C27.4795 16.1035 28.29 16.0254 29.1299 16.0254C30.3311 16.0254 31.4053 16.167 32.3525 16.4502C33.2998 16.7236 34.1543 17.1191 34.916 17.6367L34.1104 19.2041C33.3291 18.6572 32.5381 18.2764 31.7373 18.0615C30.9365 17.8369 30.0674 17.7246 29.1299 17.7246C28.71 17.7246 28.2412 17.7637 27.7236 17.8418C27.2158 17.9102 26.7422 18.0371 26.3027 18.2227C25.8633 18.3984 25.4922 18.6328 25.1895 18.9258C24.8965 19.209 24.75 19.5703 24.75 20.0098C24.75 20.3906 24.8721 20.6982 25.1162 20.9326C25.3701 21.1572 25.707 21.3477 26.127 21.5039C26.5469 21.6504 27.0254 21.7676 27.5625 21.8555C28.1094 21.9434 28.6807 22.0264 29.2764 22.1045C30.0186 22.2119 30.7656 22.3389 31.5176 22.4854C32.2793 22.6318 32.9678 22.8467 33.583 23.1299C34.208 23.4131 34.7109 23.7988 35.0918 24.2871C35.4727 24.7754 35.6631 25.4199 35.6631 26.2207Z" fill="white"/>
<rect x="1.5" y="1.5" width="42" height="38" rx="3.5" stroke="#3DFF5C" stroke-width="3"/>
</svg>
